<svg width="260" height="260" viewBox="0 0 260 260" fill="none" xmlns="http://www.w3.org/2000/svg">
<g clip-path="url(#clip0_3408_62758)">
<rect width="260" height="260" fill="white"/>
<g clip-path="url(#clip1_3408_62758)">
<path d="M155.435 132.466L109.105 86.5313C104.352 81.8196 96.6475 81.8196 91.8953 86.5313L45.5648 132.466C40.8125 137.177 40.8125 144.816 45.5648 149.528L91.8953 195.463C96.6476 200.174 104.352 200.174 109.105 195.463L155.435 149.528C160.187 144.816 160.187 137.177 155.435 132.466Z" fill="#318BCB"/>
<path d="M71.8623 156.577H129.138V160.301H71.8623V156.577ZM71.8623 148.202H129.138V144.478H71.8623V148.202ZM71.8623 136.099H129.138V132.375H71.8623V136.099ZM71.8623 120.273V123.997H129.138V120.273H71.8623Z" fill="white"/>
</g>
<g clip-path="url(#clip2_3408_62758)">
<path d="M158.526 48.6812L123.679 83.5281C120.105 87.1024 120.105 92.8976 123.679 96.4719L158.526 131.319C162.1 134.893 167.895 134.893 171.47 131.319L206.317 96.4719C209.891 92.8976 209.891 87.1024 206.317 83.5281L171.47 48.6812C167.895 45.1069 162.1 45.1069 158.526 48.6812Z" fill="#F16922"/>
<path d="M164.837 71.1648C161.112 71.1648 157.47 72.2695 154.373 74.3391C151.275 76.4088 148.861 79.3504 147.436 82.7921C146.01 86.2338 145.637 90.0209 146.364 93.6746C147.091 97.3282 148.885 100.684 151.519 103.318C154.153 105.953 157.509 107.746 161.163 108.473C164.816 109.2 168.603 108.827 172.045 107.401C175.487 105.976 178.428 103.562 180.498 100.464C182.568 97.3668 183.672 93.7252 183.672 90C183.672 85.0048 181.687 80.2143 178.155 76.6822C174.623 73.15 169.832 71.1654 164.837 71.1648ZM164.837 105.59C162.646 105.591 160.479 105.13 158.478 104.237C156.477 103.344 154.687 102.04 153.224 100.408C151.761 98.777 150.659 96.8556 149.988 94.7695C149.318 92.6834 149.095 90.4794 149.334 88.3013C149.572 86.1232 150.267 84.0199 151.374 82.1285C152.48 80.2371 153.973 78.6002 155.754 77.3245C157.536 76.0488 159.566 75.163 161.713 74.7248C163.86 74.2867 166.075 74.306 168.214 74.7815L164.837 90L180.264 87.7531C180.372 88.4972 180.427 89.2481 180.427 90C180.42 94.1316 178.774 98.0917 175.852 101.012C172.93 103.933 168.969 105.576 164.837 105.581V105.59Z" fill="white"/>
</g>
<g clip-path="url(#clip3_3408_62758)">
<path d="M160.055 149.041L134.316 175.573C131.675 178.294 131.675 182.706 134.316 185.427L160.055 211.959C162.695 214.68 166.975 214.68 169.615 211.959L195.355 185.427C197.995 182.706 197.995 178.294 195.355 175.573L169.615 149.041C166.975 146.32 162.695 146.32 160.055 149.041Z" fill="#6AAA44"/>
<path d="M178.66 168.692H148.927V191.812H180.747V168.692H178.66ZM168.754 170.842V175.681H160.918V170.842H168.754ZM168.754 177.832V182.671H160.918V177.832H168.754ZM151.012 170.842H158.837V175.681H151.012V170.842ZM151.012 177.832H158.837V182.671H151.012V177.832ZM151.012 189.661V184.83H158.837V189.67L151.012 189.661ZM160.918 189.661V184.83H168.743V189.67L160.918 189.661ZM178.654 189.661H170.836V184.83H178.66L178.654 189.661ZM178.654 182.671H170.836V177.832H178.66L178.654 182.671ZM178.654 175.681H170.836V170.842H178.66L178.654 175.681Z" fill="white"/>
</g>
<g clip-path="url(#clip4_3408_62758)">
<path d="M187.125 121.28L170.097 137.911C168.351 139.617 168.351 142.383 170.097 144.089L187.125 160.72C188.871 162.426 191.703 162.426 193.45 160.72L210.477 144.089C212.224 142.383 212.224 139.617 210.477 137.911L193.45 121.28C191.703 119.574 188.871 119.574 187.125 121.28Z" fill="#2FB6E7"/>
<path d="M184.079 138.487C184.079 138.156 184.179 137.833 184.367 137.558C184.556 137.282 184.823 137.068 185.136 136.941C185.449 136.815 185.794 136.782 186.126 136.846C186.458 136.911 186.763 137.071 187.002 137.305C187.242 137.539 187.405 137.837 187.471 138.161C187.537 138.486 187.503 138.822 187.373 139.128C187.243 139.433 187.024 139.694 186.742 139.878C186.46 140.062 186.129 140.16 185.79 140.159C185.565 140.159 185.343 140.116 185.135 140.032C184.927 139.948 184.739 139.825 184.58 139.67C184.421 139.514 184.295 139.33 184.209 139.127C184.123 138.924 184.079 138.706 184.079 138.487ZM200.251 135.388V147.141C200.251 147.679 200.032 148.195 199.642 148.576C199.252 148.956 198.724 149.17 198.173 149.171H182.447C181.896 149.17 181.367 148.956 180.978 148.576C180.588 148.195 180.369 147.679 180.368 147.141V135.388C180.369 134.85 180.588 134.334 180.978 133.953C181.367 133.572 181.896 133.358 182.447 133.358H198.173C198.724 133.358 199.252 133.572 199.642 133.953C200.032 134.334 200.251 134.85 200.251 135.388ZM181.748 135.388V145.41L183.794 143.465C184.144 143.13 184.609 142.935 185.099 142.919C185.588 142.903 186.066 143.067 186.438 143.379L187.87 144.571L192.761 139.849C193.117 139.504 193.596 139.308 194.097 139.302C194.598 139.295 195.082 139.479 195.447 139.814L198.869 142.953V135.388C198.868 135.207 198.795 135.034 198.664 134.906C198.533 134.778 198.356 134.706 198.17 134.706H182.447C182.262 134.706 182.084 134.778 181.953 134.906C181.822 135.034 181.748 135.207 181.748 135.388ZM198.869 147.139V144.8L194.5 140.801C194.394 140.705 194.255 140.652 194.112 140.654C193.968 140.656 193.83 140.712 193.728 140.811L187.938 146.399L185.541 144.405C185.43 144.313 185.288 144.264 185.143 144.269C184.997 144.273 184.859 144.331 184.755 144.43L181.763 147.282C181.796 147.436 181.882 147.573 182.006 147.672C182.131 147.771 182.286 147.825 182.447 147.826H198.173C198.264 147.825 198.355 147.807 198.44 147.773C198.525 147.738 198.602 147.687 198.667 147.623C198.731 147.559 198.782 147.484 198.817 147.4C198.852 147.317 198.869 147.228 198.869 147.139Z" fill="white"/>
</g>
<g clip-path="url(#clip5_3408_62758)">
<path d="M71.6306 59.6884L56.1871 75.1319C54.603 76.716 54.603 79.2843 56.1871 80.8683L71.6306 96.3119C73.2147 97.8959 75.783 97.8959 77.367 96.3119L92.8106 80.8683C94.3946 79.2843 94.3946 76.716 92.8106 75.1319L77.367 59.6884C75.783 58.1043 73.2147 58.1043 71.6306 59.6884Z" fill="#FC9D2A"/>
<path d="M74.428 71.0909C75.7945 71.0909 77.1303 71.4961 78.2665 72.2553C79.4028 73.0145 80.2883 74.0936 80.8113 75.3561C81.3342 76.6186 81.471 78.0078 81.2044 79.348C80.9378 80.6883 80.2798 81.9194 79.3135 82.8857C78.3473 83.8519 77.1162 84.51 75.7759 84.7766C74.4356 85.0432 73.0464 84.9064 71.7839 84.3834C70.5214 83.8605 69.4423 82.9749 68.6832 81.8387C67.924 80.7025 67.5187 79.3666 67.5187 78.0001C67.5211 76.1684 68.2497 74.4123 69.545 73.1171C70.8402 71.8219 72.5962 71.0932 74.428 71.0909ZM74.428 69.6527C72.777 69.6527 71.1631 70.1423 69.7904 71.0595C68.4177 71.9767 67.3478 73.2804 66.716 74.8057C66.0842 76.331 65.9189 78.0094 66.241 79.6286C66.563 81.2478 67.3581 82.7352 68.5255 83.9026C69.6929 85.07 71.1802 85.865 72.7995 86.1871C74.4187 86.5092 76.0971 86.3439 77.6224 85.7121C79.1477 85.0803 80.4514 84.0104 81.3686 82.6377C82.2858 81.265 82.7754 79.6511 82.7754 78.0001C82.7751 75.7863 81.8956 73.6633 80.3302 72.0979C78.7648 70.5325 76.6418 69.653 74.428 69.6527ZM72.3185 74.9084V80.7605C72.3181 80.8746 72.3479 80.9868 72.4049 81.0857C72.4619 81.1846 72.544 81.2667 72.6429 81.3236C72.7419 81.3805 72.8541 81.4102 72.9683 81.4097C73.0824 81.4092 73.1944 81.3785 73.2928 81.3208L78.3595 78.3977C78.4579 78.3409 78.5395 78.2592 78.5963 78.1608C78.6531 78.0625 78.683 77.9509 78.683 77.8374C78.683 77.7238 78.6531 77.6123 78.5963 77.5139C78.5395 77.4156 78.4579 77.3339 78.3595 77.2771L73.2928 74.354C73.1948 74.2968 73.0834 74.2664 72.9699 74.2658C72.8563 74.2652 72.7446 74.2944 72.646 74.3506C72.5473 74.4067 72.4651 74.4878 72.4076 74.5857C72.3501 74.6836 72.3194 74.7949 72.3185 74.9084Z" fill="white"/>
</g>
</g>
<rect x="0.5" y="0.5" width="259" height="259" rx="39.5" stroke="black" stroke-opacity="0.3"/>
<defs>
<clipPath id="clip0_3408_62758">
<rect width="260" height="260" rx="40" fill="white"/>
</clipPath>
<clipPath id="clip1_3408_62758">
<rect width="117" height="116" fill="white" transform="translate(42 83)"/>
</clipPath>
<clipPath id="clip2_3408_62758">
<rect width="88" height="88" fill="white" transform="translate(121 46)"/>
</clipPath>
<clipPath id="clip3_3408_62758">
<rect width="65" height="67" fill="white" transform="translate(132.337 147)"/>
</clipPath>
<clipPath id="clip4_3408_62758">
<rect width="43" height="42" fill="white" transform="translate(168.789 120)"/>
</clipPath>
<clipPath id="clip5_3408_62758">
<rect width="39" height="39" fill="white" transform="translate(55 58.5001)"/>
</clipPath>
</defs>
</svg>
